<svg width="20" height="20" viewBox="0 0 20 20" fill="none" xmlns="http://www.w3.org/2000/svg">
<path d="M10 16.7008L14.1167 12.5674C14.8722 11.823 15.3833 10.9452 15.65 9.93411C15.9056 8.94522 15.9056 7.95634 15.65 6.96745C15.3833 5.95634 14.875 5.07578 14.125 4.32578C13.375 3.57578 12.4944 3.06745 11.4833 2.80078C10.4944 2.54523 9.50556 2.54523 8.51667 2.80078C7.50556 3.06745 6.625 3.57578 5.875 4.32578C5.125 5.07578 4.61667 5.95634 4.35 6.96745C4.09444 7.95634 4.09444 8.94522 4.35 9.93411C4.61667 10.9452 5.12778 11.823 5.88333 12.5674L10 16.7008ZM10 19.0508L4.7 13.7508C3.73333 12.7952 3.08333 11.6619 2.75 10.3508C2.41667 9.08411 2.41667 7.81745 2.75 6.55078C3.08333 5.23967 3.73056 4.10356 4.69167 3.14245C5.65278 2.18134 6.78889 1.52856 8.1 1.18411C9.36667 0.861891 10.6333 0.861891 11.9 1.18411C13.2111 1.52856 14.3472 2.18134 15.3083 3.14245C16.2694 4.10356 16.9167 5.23967 17.25 6.55078C17.5833 7.81745 17.5833 9.08411 17.25 10.3508C16.9167 11.6619 16.2667 12.7952 15.3 13.7508L10 19.0508ZM10 10.1174C10.3 10.1174 10.5778 10.0424 10.8333 9.89245C11.0889 9.74245 11.2917 9.53967 11.4417 9.28411C11.5917 9.02856 11.6667 8.75078 11.6667 8.45078C11.6667 8.15078 11.5917 7.873 11.4417 7.61745C11.2917 7.36189 11.0889 7.15911 10.8333 7.00911C10.5778 6.85911 10.3 6.78411 10 6.78411C9.7 6.78411 9.42222 6.85911 9.16667 7.00911C8.91111 7.15911 8.70833 7.36189 8.55833 7.61745C8.40833 7.873 8.33333 8.15078 8.33333 8.45078C8.33333 8.75078 8.40833 9.02856 8.55833 9.28411C8.70833 9.53967 8.91111 9.74245 9.16667 9.89245C9.42222 10.0424 9.7 10.1174 10 10.1174ZM10 11.7841C9.4 11.7841 8.84444 11.6341 8.33333 11.3341C7.82222 11.0341 7.41667 10.6286 7.11667 10.1174C6.81667 9.60634 6.66667 9.048 6.66667 8.44245C6.66667 7.83689 6.81667 7.28134 7.11667 6.77578C7.41667 6.27022 7.82222 5.86745 8.33333 5.56745C8.84444 5.26745 9.4 5.11745 10 5.11745C10.6 5.11745 11.1556 5.26745 11.6667 5.56745C12.1778 5.86745 12.5833 6.27022 12.8833 6.77578C13.1833 7.28134 13.3333 7.83689 13.3333 8.44245C13.3333 9.048 13.1833 9.60634 12.8833 10.1174C12.5833 10.6286 12.1778 11.0341 11.6667 11.3341C11.1556 11.6341 10.6 11.7841 10 11.7841Z" fill="#1E3A8A"/>
</svg>
