<svg width="12" height="12" viewBox="0 0 12 12" fill="none" xmlns="http://www.w3.org/2000/svg">
<path d="M4.48963 0.997424V1.99516H7.48284V0.997424H8.48058V1.99516H10.476C10.6157 1.99516 10.7338 2.04338 10.8302 2.13983C10.9267 2.23628 10.9749 2.35435 10.9749 2.49403V10.4759C10.9749 10.6156 10.9267 10.7337 10.8302 10.8301C10.7338 10.9266 10.6157 10.9748 10.476 10.9748H1.49643C1.35674 10.9748 1.23868 10.9266 1.14223 10.8301C1.04578 10.7337 0.997559 10.6156 0.997559 10.4759V2.49403C0.997559 2.35435 1.04578 2.23628 1.14223 2.13983C1.23868 2.04338 1.35674 1.99516 1.49643 1.99516H3.4919V0.997424H4.48963ZM9.97718 5.9861H1.99529V9.97705H9.97718V5.9861ZM3.4919 2.9929H1.99529V4.98837H9.97718V2.9929H8.48058V3.99063H7.48284V2.9929H4.48963V3.99063H3.4919V2.9929Z" fill="#1E3A8A"/>
</svg>
