<svg width="18" height="15" viewBox="0 0 18 15" fill="none" xmlns="http://www.w3.org/2000/svg">
<path d="M3 7.005L0 5.25L9 0L18 5.25V11.625H16.5V6.12L15 7.005V12.015L14.835 12.21C14.135 13.08 13.285 13.76 12.285 14.25C11.255 14.75 10.16 15 9 15C7.84 15 6.745 14.75 5.715 14.25C4.715 13.76 3.865 13.08 3.165 12.21L3 12.015V7.005ZM4.5 7.875V11.475C5.06 12.105 5.725 12.595 6.495 12.945C7.285 13.315 8.12 13.5 9 13.5C9.88 13.5 10.715 13.315 11.505 12.945C12.275 12.595 12.94 12.105 13.5 11.475V7.875L9 10.5L4.5 7.875ZM2.97 5.25L9 8.76L15.03 5.25L9 1.74L2.97 5.25Z" fill="#4B5563"/>
</svg>
