<svg width="15" height="15" viewBox="0 0 15 15" fill="none" xmlns="http://www.w3.org/2000/svg">
<path d="M7.5 0C8.52 0 9.495 0.195001 10.425 0.585C11.315 0.965 12.1075 1.5025 12.8025 2.1975C13.4975 2.8925 14.035 3.685 14.415 4.575C14.805 5.505 15 6.48 15 7.5C15 8.52 14.805 9.495 14.415 10.425C14.035 11.315 13.4975 12.1075 12.8025 12.8025C12.1075 13.4975 11.315 14.035 10.425 14.415C9.495 14.805 8.52 15 7.5 15C6.48 15 5.505 14.805 4.575 14.415C3.685 14.035 2.8925 13.4975 2.1975 12.8025C1.5025 12.1075 0.965 11.315 0.585 10.425C0.195 9.495 0 8.52 0 7.5C0 6.48 0.195 5.505 0.585 4.575C0.965 3.685 1.5025 2.8925 2.1975 2.1975C2.8925 1.5025 3.685 0.965 4.575 0.585C5.505 0.195001 6.48 0 7.5 0ZM7.5 1.5C6.41 1.5 5.4 1.775 4.47 2.325C3.57 2.855 2.855 3.57 2.325 4.47C1.775 5.4 1.5 6.41 1.5 7.5C1.5 8.59 1.775 9.6 2.325 10.53C2.855 11.43 3.57 12.145 4.47 12.675C5.4 13.225 6.41 13.5 7.5 13.5C8.59 13.5 9.6 13.225 10.53 12.675C11.43 12.145 12.145 11.43 12.675 10.53C13.225 9.6 13.5 8.59 13.5 7.5C13.5 6.41 13.225 5.4 12.675 4.47C12.145 3.57 11.43 2.855 10.53 2.325C9.6 1.775 8.59 1.5 7.5 1.5ZM10.38 4.005C10.47 3.945 10.5675 3.92 10.6725 3.93C10.7775 3.94 10.8675 3.9825 10.9425 4.0575C11.0175 4.1325 11.06 4.2225 11.07 4.3275C11.08 4.4325 11.055 4.53 10.995 4.62C9.355 6.91 8.455 8.135 8.295 8.295C8.075 8.515 7.81 8.625 7.5 8.625C7.19 8.625 6.925 8.515 6.705 8.295C6.485 8.075 6.375 7.81 6.375 7.5C6.375 7.19 6.485 6.925 6.705 6.705C6.985 6.425 8.21 5.525 10.38 4.005ZM11.625 6.75C11.835 6.75 12.0125 6.8225 12.1575 6.9675C12.3025 7.1125 12.375 7.29 12.375 7.5C12.375 7.71 12.3025 7.8875 12.1575 8.0325C12.0125 8.1775 11.835 8.25 11.625 8.25C11.415 8.25 11.2375 8.1775 11.0925 8.0325C10.9475 7.8875 10.875 7.71 10.875 7.5C10.875 7.29 10.9475 7.1125 11.0925 6.9675C11.2375 6.8225 11.415 6.75 11.625 6.75ZM3.375 6.75C3.585 6.75 3.7625 6.8225 3.9075 6.9675C4.0525 7.1125 4.125 7.29 4.125 7.5C4.125 7.71 4.0525 7.8875 3.9075 8.0325C3.7625 8.1775 3.585 8.25 3.375 8.25C3.165 8.25 2.9875 8.1775 2.8425 8.0325C2.6975 7.8875 2.625 7.71 2.625 7.5C2.625 7.29 2.6975 7.1125 2.8425 6.9675C2.9875 6.8225 3.165 6.75 3.375 6.75ZM5.115 4.05C5.265 4.2 5.34 4.3775 5.34 4.5825C5.34 4.7875 5.265 4.965 5.115 5.115C4.965 5.265 4.7875 5.34 4.5825 5.34C4.3775 5.34 4.2025 5.265 4.0575 5.115C3.9125 4.965 3.84 4.7875 3.84 4.5825C3.84 4.3775 3.9125 4.2025 4.0575 4.0575C4.2025 3.9125 4.3775 3.84 4.5825 3.84C4.7875 3.84 4.965 3.91 5.115 4.05ZM7.5 2.625C7.71 2.625 7.8875 2.6975 8.0325 2.8425C8.1775 2.9875 8.25 3.165 8.25 3.375C8.25 3.585 8.1775 3.7625 8.0325 3.9075C7.8875 4.0525 7.71 4.125 7.5 4.125C7.29 4.125 7.1125 4.0525 6.9675 3.9075C6.8225 3.7625 6.75 3.585 6.75 3.375C6.75 3.165 6.8225 2.9875 6.9675 2.8425C7.1125 2.6975 7.29 2.625 7.5 2.625Z" fill="#4B5563"/>
</svg>
