<svg width="23" height="20" viewBox="0 0 23 20" fill="none" xmlns="http://www.w3.org/2000/svg">
<path d="M3.13672 1.71871C2.72656 2.73043 2.5 3.8359 2.5 4.99996C2.5 6.16403 2.72656 7.26949 3.13672 8.28121C3.39453 8.92184 3.08594 9.6484 2.44531 9.91012C1.80469 10.1718 1.07812 9.85934 0.816406 9.21871C0.289062 7.91403 0 6.48824 0 4.99996C0 3.51168 0.289062 2.0859 0.816406 0.781213C1.07812 0.140588 1.80469 -0.168006 2.44531 0.089807C3.08594 0.347619 3.39453 1.07809 3.13672 1.71871ZM21.6836 0.781213C22.2109 2.0859 22.5 3.51168 22.5 4.99996C22.5 6.48824 22.2109 7.91403 21.6836 9.21871C21.4258 9.85934 20.6953 10.1679 20.0547 9.91012C19.4141 9.65231 19.1055 8.92184 19.3633 8.28121C19.7734 7.26949 20 6.16403 20 4.99996C20 3.8359 19.7734 2.73043 19.3633 1.71871C19.1055 1.07809 19.4141 0.351526 20.0547 0.089807C20.6953 -0.171912 21.4219 0.140588 21.6836 0.781213ZM13.75 4.99996C13.75 5.92574 13.2461 6.73434 12.5 7.16403V18.75C12.5 19.4414 11.9414 20 11.25 20C10.5586 20 10 19.4414 10 18.75V7.16403C9.25391 6.73043 8.75 5.92574 8.75 4.99996C8.75 3.62106 9.87109 2.49996 11.25 2.49996C12.6289 2.49996 13.75 3.62106 13.75 4.99996ZM6.66406 2.99996C6.39844 3.60934 6.25 4.28512 6.25 4.99996C6.25 5.71481 6.39844 6.39059 6.66406 6.99996C6.94141 7.63278 6.65234 8.37106 6.01953 8.6445C5.38672 8.91793 4.64844 8.63278 4.375 7.99996C3.97266 7.07809 3.75 6.06246 3.75 4.99996C3.75 3.93746 3.97266 2.92184 4.375 1.99996C4.65234 1.36715 5.38672 1.07809 6.01953 1.35543C6.65234 1.63278 6.94141 2.36715 6.66406 2.99996ZM18.125 1.99996C18.5273 2.92184 18.75 3.93746 18.75 4.99996C18.75 6.06246 18.5273 7.07809 18.125 7.99996C17.8477 8.63278 17.1133 8.92184 16.4805 8.6445C15.8477 8.36715 15.5586 7.63278 15.8359 6.99996C16.1016 6.39059 16.25 5.71481 16.25 4.99996C16.25 4.28512 16.1016 3.60934 15.8359 2.99996C15.5586 2.36715 15.8477 1.62887 16.4805 1.35543C17.1133 1.08199 17.8516 1.36715 18.125 1.99996Z" fill="#16A34A"/>
</svg>
