<svg width="17" height="24" viewBox="0 0 17 24" fill="none" xmlns="http://www.w3.org/2000/svg">
<path d="M3.00163 11.5603L0.334961 10.0003L8.33496 5.33366L16.335 10.0003V15.667H15.0016V10.7737L13.6683 11.5603V16.0137L13.5216 16.187C12.8994 16.9603 12.1439 17.5648 11.255 18.0003C10.3394 18.4448 9.36607 18.667 8.33496 18.667C7.30385 18.667 6.33052 18.4448 5.41496 18.0003C4.52607 17.5648 3.77052 16.9603 3.14829 16.187L3.00163 16.0137V11.5603ZM4.33496 12.3337V15.5337C4.83274 16.0937 5.42385 16.5292 6.10829 16.8403C6.81052 17.1692 7.55274 17.3337 8.33496 17.3337C9.11718 17.3337 9.85941 17.1692 10.5616 16.8403C11.2461 16.5292 11.8372 16.0937 12.335 15.5337V12.3337L8.33496 14.667L4.33496 12.3337ZM2.97496 10.0003L8.33496 13.1203L13.695 10.0003L8.33496 6.88033L2.97496 10.0003Z" fill="#14B8A6"/>
</svg>
