<svg width="17" height="17" viewBox="0 0 17 17" fill="none" xmlns="http://www.w3.org/2000/svg">
<path d="M7.50525 15H6.45375C3.765 15 2.421 15 1.5855 14.1488C0.75 13.2975 0.75 11.928 0.75 9.1875C0.75 6.44775 0.75 5.0775 1.5855 4.22625C2.421 3.375 3.765 3.375 6.45375 3.375H9.306C11.9948 3.375 13.3395 3.375 14.175 4.22625C14.8178 4.881 14.9655 5.84325 15 7.5" stroke="#4B5563" stroke-width="1.5" stroke-linecap="round"/>
<path d="M11.25 3.375L11.175 3.1425C10.8038 1.9875 10.6185 1.41 10.1768 1.08C9.73425 0.75 9.14775 0.75 7.9725 0.75H7.77525C6.6015 0.75 6.01425 0.75 5.5725 1.08C5.13 1.41 4.94475 1.9875 4.5735 3.1425L4.5 3.375M12.0833 9.19125C12.222 9.06375 12.291 9 12.375 9C12.459 9 12.528 9.06375 12.6668 9.19125L13.2015 9.684C13.266 9.74325 13.2983 9.77325 13.338 9.7875C13.3785 9.8025 13.422 9.801 13.5105 9.79725L14.232 9.76875C14.418 9.76125 14.511 9.75825 14.5748 9.8115C14.6385 9.86475 14.6513 9.957 14.676 10.1415L14.775 10.881C14.787 10.9665 14.7923 11.0085 14.8133 11.046C14.8343 11.082 14.868 11.1083 14.9355 11.1615L15.5175 11.619C15.6615 11.733 15.7335 11.7893 15.7478 11.8703C15.762 11.9513 15.7133 12.0293 15.6173 12.1853L15.2228 12.8205C15.1778 12.8933 15.1553 12.93 15.1478 12.9705C15.1403 13.011 15.1493 13.0538 15.1673 13.1378L15.324 13.8713C15.3615 14.0513 15.381 14.1413 15.3398 14.2133C15.2985 14.2853 15.2108 14.3138 15.036 14.3708L14.3415 14.5965C14.259 14.6235 14.217 14.637 14.1848 14.664C14.1525 14.6918 14.1323 14.7308 14.0925 14.808L13.7535 15.4613C13.6673 15.6285 13.6238 15.7118 13.545 15.7403C13.4663 15.7688 13.38 15.7328 13.206 15.6608L12.54 15.3848C12.4583 15.351 12.4178 15.3338 12.375 15.3338C12.3323 15.3338 12.2918 15.351 12.21 15.3848L11.544 15.6608C11.37 15.7328 11.2838 15.7688 11.205 15.7403C11.1263 15.7118 11.0828 15.6278 10.9965 15.4613L10.6575 14.808C10.617 14.7308 10.5975 14.6918 10.5653 14.6648C10.533 14.6378 10.491 14.6235 10.4085 14.5973L9.714 14.3708C9.53925 14.3138 9.4515 14.2853 9.41025 14.2133C9.369 14.1413 9.38775 14.052 9.426 13.8713L9.5835 13.1378C9.60075 13.0538 9.60975 13.0118 9.60225 12.9713C9.58687 12.917 9.56143 12.8661 9.52725 12.8213L9.1335 12.1853C9.036 12.0293 8.988 11.9513 9.00225 11.8703C9.0165 11.7893 9.0885 11.733 9.2325 11.6198L9.8145 11.1623C9.882 11.1083 9.91575 11.082 9.93675 11.0453C9.95775 11.0085 9.963 10.9665 9.97425 10.8803L10.074 10.1415C10.0988 9.95775 10.1115 9.86475 10.1753 9.8115C10.239 9.75825 10.332 9.76125 10.518 9.76875L11.2403 9.79725C11.328 9.801 11.3715 9.8025 11.412 9.7875C11.4518 9.7725 11.484 9.74325 11.5485 9.684L12.0833 9.19125Z" stroke="#4B5563" stroke-width="1.5"/>
</svg>
