<svg width="16" height="16" viewBox="0 0 16 16" fill="none" xmlns="http://www.w3.org/2000/svg">
<path d="M4.0287 0.674038C4.01285 0.674413 3.99713 0.675382 3.9817 0.677475C3.05498 0.79785 2.33145 1.80519 2.33145 3.02088C2.33145 3.69423 2.56238 4.29548 2.91791 4.72401C0.990476 5.08629 0.844727 8.33151 0.844727 10.6098H2.18135L2.53598 15.3648H5.93223L6.24582 10.6099H7.51435C7.51435 8.32526 7.56029 5.02291 5.45485 4.69676C5.79516 4.27029 6.01401 3.6776 6.01401 3.02088C6.01401 1.72413 5.1876 0.677444 4.17266 0.677444C4.12507 0.677444 4.0762 0.672882 4.02866 0.674007L4.0287 0.674038ZM11.5233 0.674038C11.5075 0.674413 11.4918 0.675382 11.4763 0.677475C10.5496 0.797882 9.82607 1.80519 9.82607 3.02091C9.82607 3.69426 10.057 4.29551 10.4125 4.72404C8.4851 5.08632 8.33941 8.33154 8.33941 10.6099H9.28701L8.9692 10.2529C8.95951 8.63304 9.02726 7.27857 9.71945 6.01907L9.67123 10.6099H9.67598L10.0306 15.3648H12.7185L10.6551 14.9896C10.2839 11.7281 10.08 8.56638 10.5273 5.35338C10.5273 5.35338 10.8227 5.16369 11.2782 4.93476C10.8358 4.55726 10.5422 3.89601 10.5422 3.14273C10.5422 1.96885 11.2546 1.01732 12.1334 1.01732C12.4111 1.01732 12.6721 1.11251 12.8993 1.27957C12.5728 0.905194 12.1406 0.677444 11.6673 0.677444C11.6197 0.677444 11.5709 0.672913 11.5233 0.674038ZM13.6856 6.02741L13.7382 10.6278L14.4359 10.6197C14.4455 8.99979 14.3777 7.28694 13.6856 6.02748L13.6856 6.02741ZM13.7382 10.6278H13.7382L13.7382 10.628V10.6278Z" fill="#1BC1BC"/>
</svg>
