<svg width="17" height="16" viewBox="0 0 17 16" fill="none" xmlns="http://www.w3.org/2000/svg">
<path d="M8.66813 9.84V11.2267C8.24147 11.0756 7.79702 11 7.3348 11C6.6148 11 5.94369 11.1822 5.32147 11.5467C4.71702 11.9022 4.23702 12.3822 3.88146 12.9867C3.51702 13.6089 3.3348 14.28 3.3348 15H2.00146C2.00146 14.0311 2.24591 13.1333 2.7348 12.3067C3.20591 11.5067 3.84146 10.8711 4.64146 10.4C5.46813 9.91111 6.36591 9.66667 7.3348 9.66667C7.78813 9.66667 8.23258 9.72444 8.66813 9.84ZM7.3348 9C6.60591 9 5.9348 8.81778 5.32147 8.45333C4.71702 8.09778 4.23702 7.61778 3.88146 7.01333C3.51702 6.4 3.3348 5.72889 3.3348 5C3.3348 4.27111 3.51702 3.6 3.88146 2.98667C4.23702 2.38222 4.71702 1.90222 5.32147 1.54667C5.9348 1.18222 6.60591 1 7.3348 1C8.06369 1 8.7348 1.18222 9.34813 1.54667C9.95258 1.90222 10.4326 2.38222 10.7881 2.98667C11.1526 3.6 11.3348 4.27111 11.3348 5C11.3348 5.72889 11.1526 6.4 10.7881 7.01333C10.4326 7.61778 9.95258 8.09778 9.34813 8.45333C8.7348 8.81778 8.06369 9 7.3348 9ZM7.3348 7.66667C7.8148 7.66667 8.25924 7.54667 8.66813 7.30667C9.07702 7.06667 9.40146 6.74222 9.64147 6.33333C9.88146 5.92444 10.0015 5.48 10.0015 5C10.0015 4.52 9.88146 4.07555 9.64147 3.66667C9.40146 3.25778 9.07702 2.93333 8.66813 2.69333C8.25924 2.45333 7.8148 2.33333 7.3348 2.33333C6.8548 2.33333 6.41035 2.45333 6.00146 2.69333C5.59258 2.93333 5.26813 3.25778 5.02813 3.66667C4.78813 4.07555 4.66813 4.52 4.66813 5C4.66813 5.48 4.78813 5.92444 5.02813 6.33333C5.26813 6.74222 5.59258 7.06667 6.00146 7.30667C6.41035 7.54667 6.8548 7.66667 7.3348 7.66667ZM11.3348 11.6667V9.66667H12.6681V11.6667H14.6681V13H12.6681V15H11.3348V13H9.3348V11.6667H11.3348Z" fill="#3B82F6"/>
</svg>
