<svg width="17" height="24" viewBox="0 0 17 24" fill="none" xmlns="http://www.w3.org/2000/svg">
<path d="M8.66813 13.84V15.2267C8.24147 15.0756 7.79702 15 7.3348 15C6.6148 15 5.94369 15.1822 5.32147 15.5467C4.71702 15.9022 4.23702 16.3822 3.88146 16.9867C3.51702 17.6089 3.3348 18.28 3.3348 19H2.00146C2.00146 18.0311 2.24591 17.1333 2.7348 16.3067C3.20591 15.5067 3.84146 14.8711 4.64146 14.4C5.46813 13.9111 6.36591 13.6667 7.3348 13.6667C7.78813 13.6667 8.23258 13.7244 8.66813 13.84ZM7.3348 13C6.60591 13 5.9348 12.8178 5.32147 12.4533C4.71702 12.0978 4.23702 11.6178 3.88146 11.0133C3.51702 10.4 3.3348 9.72889 3.3348 9C3.3348 8.27111 3.51702 7.6 3.88146 6.98667C4.23702 6.38222 4.71702 5.90222 5.32147 5.54667C5.9348 5.18222 6.60591 5 7.3348 5C8.06369 5 8.7348 5.18222 9.34813 5.54667C9.95258 5.90222 10.4326 6.38222 10.7881 6.98667C11.1526 7.6 11.3348 8.27111 11.3348 9C11.3348 9.72889 11.1526 10.4 10.7881 11.0133C10.4326 11.6178 9.95258 12.0978 9.34813 12.4533C8.7348 12.8178 8.06369 13 7.3348 13ZM7.3348 11.6667C7.8148 11.6667 8.25924 11.5467 8.66813 11.3067C9.07702 11.0667 9.40146 10.7422 9.64147 10.3333C9.88146 9.92444 10.0015 9.48 10.0015 9C10.0015 8.52 9.88146 8.07555 9.64147 7.66667C9.40146 7.25778 9.07702 6.93333 8.66813 6.69333C8.25924 6.45333 7.8148 6.33333 7.3348 6.33333C6.8548 6.33333 6.41035 6.45333 6.00146 6.69333C5.59258 6.93333 5.26813 7.25778 5.02813 7.66667C4.78813 8.07555 4.66813 8.52 4.66813 9C4.66813 9.48 4.78813 9.92444 5.02813 10.3333C5.26813 10.7422 5.59258 11.0667 6.00146 11.3067C6.41035 11.5467 6.8548 11.6667 7.3348 11.6667ZM11.3348 15.6667V13.6667H12.6681V15.6667H14.6681V17H12.6681V19H11.3348V17H9.3348V15.6667H11.3348Z" fill="#3B82F6"/>
</svg>
