<svg width="20" height="20" viewBox="0 0 20 20" fill="none" xmlns="http://www.w3.org/2000/svg">
<g clip-path="url(#clip0_1060_5510)">
<path d="M10.004 10.833H10.0106M6.6748 10.833H6.6823" stroke="#4B5563" stroke-width="2" stroke-linecap="round" stroke-linejoin="round"/>
<path d="M18.3 12.5C18.3216 11.895 18.3333 11.475 18.3333 10.8325C18.3333 10.19 18.3216 9.56333 18.3 8.9575C18.2308 6.98 18.1958 5.99083 17.3916 5.18C16.5875 4.37 15.57 4.32667 13.5366 4.23917C12.9244 4.21306 12.2925 4.19361 11.6408 4.18083C11.0241 4.16917 10.715 4.16417 10.4433 4.06C10.1716 3.95583 9.9433 3.76167 9.48663 3.37L7.6708 1.81167C7.58237 1.73589 7.47405 1.68709 7.3587 1.67106C7.24335 1.65503 7.12583 1.67244 7.02009 1.72123C6.91435 1.77002 6.82484 1.84814 6.76218 1.9463C6.69952 2.04446 6.66636 2.15855 6.66663 2.275V4.23167L6.4633 4.24C4.42996 4.3275 3.41329 4.37083 2.60829 5.18167C1.80413 5.99167 1.76913 6.98083 1.69996 8.95833C1.656 10.2079 1.656 11.4587 1.69996 12.7083C1.76913 14.6858 1.80413 15.675 2.60829 16.4858C3.41246 17.2958 4.42996 17.3392 6.4633 17.4267C7.06746 17.45 7.69163 17.4875 8.3333 17.5" stroke="#4B5563" stroke-width="1.5" stroke-linecap="round" stroke-linejoin="round"/>
<path d="M18.3333 15.833C18.3333 15.833 16.6317 13.333 14.1667 13.333C11.7017 13.333 10 15.833 10 15.833C10 15.833 11.6667 18.333 14.1667 18.333C16.6667 18.333 18.3333 15.833 18.3333 15.833Z" stroke="#4B5563" stroke-width="1.5" stroke-linecap="round" stroke-linejoin="round"/>
<path d="M14.1592 15.833H14.1682" stroke="#4B5563" stroke-width="2" stroke-linecap="round" stroke-linejoin="round"/>
</g>
<defs>
<clipPath id="clip0_1060_5510">
<rect width="20" height="20" fill="white" transform="matrix(1 0 0 -1 0 20)"/>
</clipPath>
</defs>
</svg>
