<svg width="20" height="20" viewBox="0 0 20 20" fill="none" xmlns="http://www.w3.org/2000/svg">
<path d="M7.50033 1.66732V3.33398H12.5003V1.66732H14.167V3.33398H17.5003C17.7337 3.33398 17.9309 3.41454 18.092 3.57565C18.2531 3.73676 18.3337 3.93398 18.3337 4.16732V17.5007C18.3337 17.734 18.2531 17.9312 18.092 18.0923C17.9309 18.2534 17.7337 18.334 17.5003 18.334H2.50033C2.26699 18.334 2.06977 18.2534 1.90866 18.0923C1.74755 17.9312 1.66699 17.734 1.66699 17.5007V4.16732C1.66699 3.93398 1.74755 3.73676 1.90866 3.57565C2.06977 3.41454 2.26699 3.33398 2.50033 3.33398H5.83366V1.66732H7.50033ZM16.667 10.0007H3.33366V16.6673H16.667V10.0007ZM5.83366 5.00065H3.33366V8.33398H16.667V5.00065H14.167V6.66732H12.5003V5.00065H7.50033V6.66732H5.83366V5.00065Z" fill="#9333EA"/>
</svg>
