<svg width="17" height="24" viewBox="0 0 17 24" fill="none" xmlns="http://www.w3.org/2000/svg">
<path d="M2.56154 15.3329C2.27709 14.844 2.05931 14.3284 1.9082 13.7862C2.23709 13.6173 2.50154 13.3729 2.70154 13.0529C2.90154 12.7329 3.00154 12.3817 3.00154 11.9995C3.00154 11.6173 2.90154 11.2662 2.70154 10.9462C2.50154 10.6262 2.23709 10.3817 1.9082 10.2129C2.21931 9.10174 2.77487 8.1373 3.57487 7.31952C3.88598 7.52396 4.23043 7.63285 4.6082 7.64618C4.98598 7.65952 5.33931 7.57063 5.6682 7.37952C5.99709 7.18841 6.25043 6.92618 6.4282 6.59285C6.60598 6.25952 6.68598 5.91063 6.6682 5.54618C7.77931 5.25285 8.89043 5.25285 10.0015 5.54618C9.98376 5.91063 10.0638 6.25952 10.2415 6.59285C10.4193 6.92618 10.6726 7.18841 11.0015 7.37952C11.3304 7.57063 11.6838 7.65952 12.0615 7.64618C12.4393 7.63285 12.7838 7.52396 13.0949 7.31952C13.486 7.72841 13.8238 8.1773 14.1082 8.66618C14.3926 9.15507 14.6104 9.67063 14.7615 10.2129C14.4326 10.3817 14.1682 10.6262 13.9682 10.9462C13.7682 11.2662 13.6682 11.6173 13.6682 11.9995C13.6682 12.3817 13.7682 12.7329 13.9682 13.0529C14.1682 13.3729 14.4326 13.6173 14.7615 13.7862C14.4504 14.8973 13.8949 15.8617 13.0949 16.6795C12.7838 16.4751 12.4393 16.3662 12.0615 16.3529C11.6838 16.3395 11.3304 16.4284 11.0015 16.6195C10.6726 16.8106 10.4193 17.0729 10.2415 17.4062C10.0638 17.7395 9.98376 18.0884 10.0015 18.4529C8.89043 18.7462 7.77931 18.7462 6.6682 18.4529C6.68598 18.0884 6.60598 17.7395 6.4282 17.4062C6.25043 17.0729 5.99709 16.8106 5.6682 16.6195C5.33931 16.4284 4.98598 16.3395 4.6082 16.3529C4.23043 16.3662 3.88598 16.4751 3.57487 16.6795C3.18376 16.2706 2.84598 15.8217 2.56154 15.3329ZM6.33487 15.4662C6.69043 15.6706 6.99709 15.9329 7.25487 16.2529C7.51265 16.5729 7.7082 16.924 7.84154 17.3062C8.17043 17.3417 8.49931 17.3417 8.8282 17.3062C8.96154 16.924 9.15487 16.5729 9.4082 16.2529C9.66154 15.9329 9.9682 15.6684 10.3282 15.4595C10.6882 15.2506 11.0726 15.1151 11.4815 15.0529C11.8904 14.9906 12.2904 15.004 12.6815 15.0929C12.8771 14.8173 13.046 14.5284 13.1882 14.2262C12.9126 13.924 12.7015 13.5817 12.5549 13.1995C12.4082 12.8173 12.3349 12.4173 12.3349 11.9995C12.3349 11.5817 12.4082 11.1817 12.5549 10.7995C12.7015 10.4173 12.9126 10.0751 13.1882 9.77285C13.1171 9.62174 13.0393 9.47507 12.9549 9.33285C12.8704 9.19063 12.7793 9.04841 12.6815 8.90618C12.2904 8.99507 11.8904 9.00841 11.4815 8.94619C11.0726 8.88396 10.6904 8.74841 10.3349 8.53952C9.97931 8.33063 9.67265 8.06618 9.41487 7.74618C9.15709 7.42618 8.96154 7.07507 8.8282 6.69285C8.49931 6.6573 8.17043 6.6573 7.84154 6.69285C7.7082 7.07507 7.51487 7.42618 7.26154 7.74618C7.0082 8.06618 6.69931 8.33063 6.33487 8.53952C5.97043 8.74841 5.58598 8.88396 5.18154 8.94619C4.77709 9.00841 4.37931 8.99507 3.9882 8.90618C3.79265 9.18174 3.62376 9.47063 3.48154 9.77285C3.75709 10.0751 3.9682 10.4173 4.11487 10.7995C4.26154 11.1817 4.33487 11.5817 4.33487 11.9995C4.33487 12.4173 4.26154 12.8173 4.11487 13.1995C3.9682 13.5817 3.75709 13.924 3.48154 14.2262C3.55265 14.3773 3.63043 14.524 3.71487 14.6662C3.79931 14.8084 3.89043 14.9506 3.9882 15.0929C4.37931 15.004 4.77931 14.9906 5.1882 15.0529C5.59709 15.1151 5.97931 15.2529 6.33487 15.4662ZM8.33487 13.9995C7.97043 13.9995 7.63487 13.9106 7.3282 13.7329C7.02154 13.5551 6.77931 13.3129 6.60154 13.0062C6.42376 12.6995 6.33487 12.364 6.33487 11.9995C6.33487 11.6351 6.42376 11.2995 6.60154 10.9929C6.77931 10.6862 7.02154 10.444 7.3282 10.2662C7.63487 10.0884 7.97043 9.99952 8.33487 9.99952C8.69931 9.99952 9.03487 10.0884 9.34154 10.2662C9.6482 10.444 9.89043 10.6862 10.0682 10.9929C10.246 11.2995 10.3349 11.6351 10.3349 11.9995C10.3349 12.364 10.246 12.6995 10.0682 13.0062C9.89043 13.3129 9.6482 13.5551 9.34154 13.7329C9.03487 13.9106 8.69931 13.9995 8.33487 13.9995ZM8.33487 12.6662C8.52154 12.6662 8.67931 12.6017 8.8082 12.4729C8.93709 12.344 9.00154 12.1862 9.00154 11.9995C9.00154 11.8129 8.93709 11.6551 8.8082 11.5262C8.67931 11.3973 8.52154 11.3329 8.33487 11.3329C8.1482 11.3329 7.99043 11.3973 7.86154 11.5262C7.73265 11.6551 7.6682 11.8129 7.6682 11.9995C7.6682 12.1862 7.73265 12.344 7.86154 12.4729C7.99043 12.6017 8.1482 12.6662 8.33487 12.6662Z" fill="#A855F7"/>
</svg>
