<svg width="16" height="16" viewBox="0 0 16 16" fill="none" xmlns="http://www.w3.org/2000/svg">
<path d="M6.1875 14.625H5.25C4.05653 14.625 2.91193 14.1509 2.06802 13.307C1.22411 12.4631 0.75 11.3185 0.75 10.125V5.25C0.75 4.05653 1.22411 2.91193 2.06802 2.06802C2.91193 1.22411 4.05653 0.75 5.25 0.75H10.125C11.3185 0.75 12.4631 1.22411 13.307 2.06802C14.1509 2.91193 14.625 4.05653 14.625 5.25V6.1875" stroke="#4B5563" stroke-width="1.5" stroke-linecap="round"/>
<path d="M10.662 11.3354L10.2795 13.5547C10.2299 13.7322 10.1254 13.8895 9.98092 14.004C9.83646 14.1185 9.65946 14.1844 9.47529 14.1921C9.29111 14.1998 9.10921 14.1491 8.95565 14.0471C8.80209 13.9451 8.68476 13.7972 8.62045 13.6244L6.5287 7.71291C6.47154 7.55662 6.46024 7.38725 6.49613 7.22475C6.53202 7.06226 6.61361 6.91341 6.73128 6.79573C6.84895 6.67806 6.99781 6.59648 7.1603 6.56059C7.3228 6.52469 7.49217 6.53599 7.64845 6.59316L13.6755 8.68416C13.8545 8.74588 14.0086 8.86415 14.1145 9.02111C14.2205 9.17808 14.2725 9.36524 14.2627 9.55436C14.253 9.74348 14.182 9.9243 14.0605 10.0696C13.9391 10.2148 13.7736 10.3166 13.5892 10.3597L11.2545 10.7422C11.114 10.7837 10.9863 10.8598 10.8828 10.9634C10.7793 11.0671 10.7034 11.1949 10.662 11.3354Z" stroke="#4B5563" stroke-width="1.5" stroke-linecap="round" stroke-linejoin="round"/>
</svg>
