<svg width="15" height="12" viewBox="0 0 15 12" fill="none" xmlns="http://www.w3.org/2000/svg">
<path d="M3.75 1.5C3.75 0.672656 4.42266 0 5.25 0H13.5C14.3273 0 15 0.672656 15 1.5V8.25C15 9.07734 14.3273 9.75 13.5 9.75H7.89375C7.61719 9.15234 7.19297 8.63672 6.66562 8.25H9V7.5C9 7.08516 9.33516 6.75 9.75 6.75H11.25C11.6648 6.75 12 7.08516 12 7.5V8.25H13.5V1.5H5.25V2.65078C4.80937 2.39531 4.29609 2.25 3.75 2.25V1.5ZM3.75 3C4.04547 3 4.33806 3.0582 4.61104 3.17127C4.88402 3.28434 5.13206 3.45008 5.34099 3.65901C5.54992 3.86794 5.71566 4.11598 5.82873 4.38896C5.9418 4.66194 6 4.95453 6 5.25C6 5.54547 5.9418 5.83806 5.82873 6.11104C5.71566 6.38402 5.54992 6.63206 5.34099 6.84099C5.13206 7.04992 4.88402 7.21566 4.61104 7.32873C4.33806 7.4418 4.04547 7.5 3.75 7.5C3.45453 7.5 3.16194 7.4418 2.88896 7.32873C2.61598 7.21566 2.36794 7.04992 2.15901 6.84099C1.95008 6.63206 1.78434 6.38402 1.67127 6.11104C1.5582 5.83806 1.5 5.54547 1.5 5.25C1.5 4.95453 1.5582 4.66194 1.67127 4.38896C1.78434 4.11598 1.95008 3.86794 2.15901 3.65901C2.36794 3.45008 2.61598 3.28434 2.88896 3.17127C3.16194 3.0582 3.45453 3 3.75 3ZM3.12422 8.25H4.37344C6.10078 8.25 7.5 9.64922 7.5 11.3742C7.5 11.7188 7.22109 12 6.87422 12H0.625781C0.278906 12 0 11.7211 0 11.3742C0 9.64922 1.39922 8.25 3.12422 8.25Z" fill="#1E40AF"/>
</svg>
