<svg width="19" height="18" viewBox="0 0 19 18" fill="none" xmlns="http://www.w3.org/2000/svg">
<path d="M2.88979 12.7503C2.56979 12.2003 2.32479 11.6203 2.15479 11.0103C2.52479 10.8203 2.82229 10.5453 3.04729 10.1853C3.27229 9.82531 3.38479 9.43031 3.38479 9.00031C3.38479 8.57031 3.27229 8.17531 3.04729 7.81531C2.82229 7.45531 2.52479 7.18031 2.15479 6.99031C2.50479 5.74031 3.12979 4.65531 4.02979 3.73531C4.37979 3.96531 4.76729 4.08781 5.19229 4.10281C5.61729 4.11781 6.01479 4.01781 6.38479 3.80281C6.75479 3.58781 7.03978 3.29281 7.23979 2.91781C7.43979 2.54281 7.52979 2.15031 7.50979 1.74031C8.75979 1.41031 10.0098 1.41031 11.2598 1.74031C11.2398 2.15031 11.3298 2.54281 11.5298 2.91781C11.7298 3.29281 12.0148 3.58781 12.3848 3.80281C12.7548 4.01781 13.1523 4.11781 13.5773 4.10281C14.0023 4.08781 14.3898 3.96531 14.7398 3.73531C15.1798 4.19531 15.5598 4.70031 15.8798 5.25031C16.1998 5.80031 16.4448 6.38031 16.6148 6.99031C16.2448 7.18031 15.9473 7.45531 15.7223 7.81531C15.4973 8.17531 15.3848 8.57031 15.3848 9.00031C15.3848 9.43031 15.4973 9.82531 15.7223 10.1853C15.9473 10.5453 16.2448 10.8203 16.6148 11.0103C16.2648 12.2603 15.6398 13.3453 14.7398 14.2653C14.3898 14.0353 14.0023 13.9128 13.5773 13.8978C13.1523 13.8828 12.7548 13.9828 12.3848 14.1978C12.0148 14.4128 11.7298 14.7078 11.5298 15.0828C11.3298 15.4578 11.2398 15.8503 11.2598 16.2603C10.0098 16.5903 8.75979 16.5903 7.50979 16.2603C7.52979 15.8503 7.43979 15.4578 7.23979 15.0828C7.03978 14.7078 6.75479 14.4128 6.38479 14.1978C6.01479 13.9828 5.61729 13.8828 5.19229 13.8978C4.76729 13.9128 4.37979 14.0353 4.02979 14.2653C3.58979 13.8053 3.20979 13.3003 2.88979 12.7503ZM7.13479 12.9003C7.53478 13.1303 7.87979 13.4253 8.16979 13.7853C8.45978 14.1453 8.67978 14.5403 8.82978 14.9703C9.19978 15.0103 9.56979 15.0103 9.93979 14.9703C10.0898 14.5403 10.3073 14.1453 10.5923 13.7853C10.8773 13.4253 11.2223 13.1278 11.6273 12.8928C12.0323 12.6578 12.4648 12.5053 12.9248 12.4353C13.3848 12.3653 13.8348 12.3803 14.2748 12.4803C14.4948 12.1703 14.6848 11.8453 14.8448 11.5053C14.5348 11.1653 14.2973 10.7803 14.1323 10.3503C13.9673 9.92031 13.8848 9.47031 13.8848 9.00031C13.8848 8.53031 13.9673 8.08031 14.1323 7.65031C14.2973 7.22031 14.5348 6.83531 14.8448 6.49531C14.7648 6.32531 14.6773 6.16031 14.5823 6.00031C14.4873 5.84031 14.3848 5.68031 14.2748 5.52031C13.8348 5.62031 13.3848 5.63531 12.9248 5.56531C12.4648 5.49531 12.0348 5.34281 11.6348 5.10781C11.2348 4.87281 10.8898 4.57531 10.5998 4.21531C10.3098 3.85531 10.0898 3.46031 9.93979 3.03031C9.56979 2.99031 9.19978 2.99031 8.82978 3.03031C8.67978 3.46031 8.46229 3.85531 8.17729 4.21531C7.89228 4.57531 7.54479 4.87281 7.13479 5.10781C6.72478 5.34281 6.29228 5.49531 5.83729 5.56531C5.38229 5.63531 4.93479 5.62031 4.49479 5.52031C4.27479 5.83031 4.08479 6.15531 3.92479 6.49531C4.23479 6.83531 4.47229 7.22031 4.63728 7.65031C4.80229 8.08031 4.88479 8.53031 4.88479 9.00031C4.88479 9.47031 4.80229 9.92031 4.63728 10.3503C4.47229 10.7803 4.23479 11.1653 3.92479 11.5053C4.00479 11.6753 4.09229 11.8403 4.18729 12.0003C4.28229 12.1603 4.38479 12.3203 4.49479 12.4803C4.93479 12.3803 5.38479 12.3653 5.84478 12.4353C6.30479 12.5053 6.73479 12.6603 7.13479 12.9003ZM9.38479 11.2503C8.97478 11.2503 8.59728 11.1503 8.25229 10.9503C7.90729 10.7503 7.63479 10.4778 7.43478 10.1328C7.23479 9.78781 7.13479 9.41031 7.13479 9.00031C7.13479 8.59031 7.23479 8.21281 7.43478 7.86781C7.63479 7.52281 7.90729 7.25031 8.25229 7.05031C8.59728 6.85031 8.97478 6.75031 9.38479 6.75031C9.79479 6.75031 10.1723 6.85031 10.5173 7.05031C10.8623 7.25031 11.1348 7.52281 11.3348 7.86781C11.5348 8.21281 11.6348 8.59031 11.6348 9.00031C11.6348 9.41031 11.5348 9.78781 11.3348 10.1328C11.1348 10.4778 10.8623 10.7503 10.5173 10.9503C10.1723 11.1503 9.79479 11.2503 9.38479 11.2503ZM9.38479 9.75031C9.59479 9.75031 9.77228 9.67781 9.91728 9.53281C10.0623 9.38781 10.1348 9.21031 10.1348 9.00031C10.1348 8.79031 10.0623 8.61281 9.91728 8.46781C9.77228 8.32281 9.59479 8.25031 9.38479 8.25031C9.17479 8.25031 8.99728 8.32281 8.85228 8.46781C8.70728 8.61281 8.63479 8.79031 8.63479 9.00031C8.63479 9.21031 8.70728 9.38781 8.85228 9.53281C8.99728 9.67781 9.17479 9.75031 9.38479 9.75031Z" fill="#4B5563"/>
</svg>
