<svg width="21" height="20" viewBox="0 0 21 20" fill="none" xmlns="http://www.w3.org/2000/svg">
<path d="M11.4358 0.703125C11.2288 0.273438 10.7913 0 10.3108 0C9.83033 0 9.39674 0.273438 9.1858 0.703125L6.67408 5.87109L1.0647 6.69922C0.595955 6.76953 0.20533 7.09766 0.0607986 7.54688C-0.0837326 7.99609 0.0334548 8.49219 0.369392 8.82422L4.4397 12.8516L3.47877 18.543C3.40064 19.0117 3.59595 19.4883 3.98267 19.7656C4.36939 20.043 4.88111 20.0781 5.30299 19.8555L10.3147 17.1797L15.3264 19.8555C15.7483 20.0781 16.26 20.0469 16.6467 19.7656C17.0335 19.4844 17.2288 19.0117 17.1506 18.543L16.1858 12.8516L20.2561 8.82422C20.592 8.49219 20.7131 7.99609 20.5647 7.54688C20.4163 7.09766 20.0295 6.76953 19.5608 6.69922L13.9475 5.87109L11.4358 0.703125Z" fill="#F59E0B"/>
</svg>
