<svg width="19" height="18" viewBox="0 0 19 18" fill="none" xmlns="http://www.w3.org/2000/svg">
<path d="M5.85977 15.615L1.88477 16.5L2.76977 12.525C2.17977 11.435 1.88477 10.26 1.88477 9C1.88477 7.98 2.07977 7.005 2.46977 6.075C2.84977 5.185 3.38727 4.3925 4.08227 3.6975C4.77727 3.0025 5.56977 2.465 6.45977 2.085C7.38977 1.695 8.36477 1.5 9.38477 1.5C10.4048 1.5 11.3798 1.695 12.3098 2.085C13.1998 2.465 13.9923 3.0025 14.6873 3.6975C15.3823 4.3925 15.9198 5.185 16.2998 6.075C16.6898 7.005 16.8848 7.98 16.8848 9C16.8848 10.02 16.6898 10.995 16.2998 11.925C15.9198 12.815 15.3823 13.6075 14.6873 14.3025C13.9923 14.9975 13.1998 15.535 12.3098 15.915C11.3798 16.305 10.4048 16.5 9.38477 16.5C8.12477 16.5 6.94977 16.205 5.85977 15.615ZM6.06977 14.04L6.56477 14.295C7.44477 14.765 8.38477 15 9.38477 15C10.4748 15 11.4848 14.725 12.4148 14.175C13.3148 13.645 14.0298 12.93 14.5598 12.03C15.1098 11.1 15.3848 10.09 15.3848 9C15.3848 7.91 15.1098 6.9 14.5598 5.97C14.0298 5.07 13.3148 4.355 12.4148 3.825C11.4848 3.275 10.4748 3 9.38477 3C8.29477 3 7.28477 3.275 6.35477 3.825C5.45477 4.355 4.73977 5.07 4.20977 5.97C3.65977 6.9 3.38477 7.91 3.38477 9C3.38477 10 3.61977 10.94 4.08977 11.82L4.34477 12.315L3.86477 14.52L6.06977 14.04Z" fill="#2563EB"/>
</svg>
