<svg width="16" height="14" viewBox="0 0 16 14" fill="none" xmlns="http://www.w3.org/2000/svg">
<path d="M9.79375 0.0293749C10.6062 0.191875 11.1344 0.9825 10.9719 1.795L10.9 2.15125C10.7344 2.98562 10.4281 3.77937 10 4.50125H14.5C15.3281 4.50125 16 5.17312 16 6.00125C16 6.57937 15.6719 7.0825 15.1906 7.3325C15.5312 7.6075 15.75 8.02938 15.75 8.50125C15.75 9.2325 15.225 9.84188 14.5344 9.97313C14.6719 10.2013 14.75 10.4669 14.75 10.7513C14.75 11.4169 14.3156 11.9825 13.7156 12.1763C13.7375 12.2794 13.75 12.3888 13.75 12.5013C13.75 13.3294 13.0781 14.0013 12.25 14.0013H9.20312C8.60938 14.0013 8.03125 13.8263 7.5375 13.4981L6.33437 12.695C5.5 12.1388 5 11.2013 5 10.1981V9.00125V7.50125V6.72312C5 5.81063 5.41563 4.95125 6.125 4.37937L6.35625 4.195C7.18437 3.5325 7.75 2.60125 7.95625 1.56375L8.02812 1.2075C8.19063 0.395 8.98125 -0.133125 9.79375 0.0293749ZM1 5.00125H3C3.55312 5.00125 4 5.44812 4 6.00125V13.0013C4 13.5544 3.55312 14.0013 3 14.0013H1C0.446875 14.0013 0 13.5544 0 13.0013V6.00125C0 5.44812 0.446875 5.00125 1 5.00125Z" fill="#EF4444"/>
</svg>
