<svg width="12" height="12" viewBox="0 0 12 12" fill="none" xmlns="http://www.w3.org/2000/svg">
<path d="M0.748047 11.2233C0.748047 10.4983 0.930965 9.82649 1.2968 9.20789C1.64933 8.60925 2.12492 8.13366 2.72356 7.78113C3.34216 7.41529 4.01397 7.23237 4.73899 7.23237C5.46401 7.23237 6.13582 7.41529 6.75442 7.78113C7.35306 8.13366 7.82864 8.60925 8.18118 9.20789C8.54701 9.82649 8.72993 10.4983 8.72993 11.2233H7.7322C7.7322 10.6845 7.59584 10.1823 7.32313 9.71674C7.05706 9.26443 6.69788 8.90524 6.24557 8.63918C5.77996 8.36647 5.27777 8.23011 4.73899 8.23011C4.20021 8.23011 3.69802 8.36647 3.23241 8.63918C2.7801 8.90524 2.42092 9.26443 2.15485 9.71674C1.88214 10.1823 1.74578 10.6845 1.74578 11.2233H0.748047ZM4.73899 6.73351C4.19356 6.73351 3.69137 6.59715 3.23241 6.32443C2.7801 6.05837 2.42092 5.69919 2.15485 5.24688C1.88214 4.78792 1.74578 4.28573 1.74578 3.7403C1.74578 3.19487 1.88214 2.69268 2.15485 2.23372C2.42092 1.78141 2.7801 1.42223 3.23241 1.15616C3.69137 0.883449 4.19356 0.747092 4.73899 0.747092C5.28442 0.747092 5.78661 0.883449 6.24557 1.15616C6.69788 1.42223 7.05706 1.78141 7.32313 2.23372C7.59584 2.69268 7.7322 3.19487 7.7322 3.7403C7.7322 4.28573 7.59584 4.78792 7.32313 5.24688C7.05706 5.69919 6.69788 6.05837 6.24557 6.32443C5.78661 6.59715 5.28442 6.73351 4.73899 6.73351ZM4.73899 5.73577C5.09817 5.73577 5.43075 5.64597 5.73673 5.46638C6.0427 5.28679 6.28548 5.04401 6.46507 4.73803C6.64467 4.43206 6.73446 4.09948 6.73446 3.7403C6.73446 3.38111 6.64467 3.04854 6.46507 2.74256C6.28548 2.43659 6.0427 2.19381 5.73673 2.01422C5.43075 1.83462 5.09817 1.74483 4.73899 1.74483C4.37981 1.74483 4.04723 1.83462 3.74125 2.01422C3.43528 2.19381 3.1925 2.43659 3.01291 2.74256C2.83331 3.04854 2.74352 3.38111 2.74352 3.7403C2.74352 4.09948 2.83331 4.43206 3.01291 4.73803C3.1925 5.04401 3.43528 5.28679 3.74125 5.46638C4.04723 5.64597 4.37981 5.73577 4.73899 5.73577ZM8.86962 7.58158C9.33523 7.78778 9.74596 8.07546 10.1018 8.44462C10.4577 8.81379 10.7321 9.23117 10.925 9.69678C11.1245 10.1823 11.2243 10.6912 11.2243 11.2233H10.2265C10.2265 10.6247 10.0636 10.0759 9.73765 9.57705C9.41837 9.09149 8.99267 8.72898 8.46054 8.48952L8.86962 7.58158ZM8.53039 1.95435C9.0359 2.16055 9.44498 2.49313 9.7576 2.95209C10.0702 3.41105 10.2265 3.92322 10.2265 4.4886C10.2265 4.96086 10.1168 5.3982 9.89728 5.80062C9.67778 6.20304 9.3768 6.53063 8.99433 6.78339C8.61187 7.03615 8.19116 7.18249 7.7322 7.2224V6.21468C8.01156 6.17477 8.26599 6.07334 8.49546 5.91037C8.72494 5.74741 8.90454 5.54121 9.03424 5.29178C9.16395 5.04234 9.2288 4.77462 9.2288 4.4886C9.2288 4.14937 9.139 3.84007 8.95941 3.56071C8.77982 3.28134 8.54369 3.06849 8.25102 2.92216L8.53039 1.95435Z" fill="#0D9488"/>
</svg>
