<svg width="14" height="14" viewBox="0 0 14 14" fill="none" xmlns="http://www.w3.org/2000/svg">
<path d="M2.24316 12.6187C2.24316 11.8036 2.4488 11.0483 2.86007 10.3529C3.25639 9.67993 3.79104 9.14527 4.46403 8.74896C5.15946 8.33769 5.9147 8.13205 6.72977 8.13205C7.54483 8.13205 8.30008 8.33769 8.9955 8.74896C9.66849 9.14527 10.2031 9.67993 10.5995 10.3529C11.0107 11.0483 11.2164 11.8036 11.2164 12.6187H10.0947C10.0947 12.013 9.94143 11.4484 9.63484 10.925C9.33573 10.4165 8.93194 10.0127 8.42346 9.71358C7.90002 9.40699 7.33546 9.2537 6.72977 9.2537C6.12407 9.2537 5.55951 9.40699 5.03607 9.71358C4.52759 10.0127 4.1238 10.4165 3.82469 10.925C3.51811 11.4484 3.36481 12.013 3.36481 12.6187H2.24316ZM6.72977 7.57122C6.1166 7.57122 5.55203 7.41793 5.03607 7.11135C4.52759 6.81224 4.1238 6.40845 3.82469 5.89997C3.51811 5.38401 3.36481 4.81944 3.36481 4.20627C3.36481 3.5931 3.51811 3.02854 3.82469 2.51258C4.1238 2.0041 4.52759 1.60031 5.03607 1.3012C5.55203 0.994614 6.1166 0.841322 6.72977 0.841322C7.34294 0.841322 7.9075 0.994614 8.42346 1.3012C8.93194 1.60031 9.33573 2.0041 9.63484 2.51258C9.94143 3.02854 10.0947 3.5931 10.0947 4.20627C10.0947 4.81944 9.94143 5.38401 9.63484 5.89997C9.33573 6.40845 8.93194 6.81224 8.42346 7.11135C7.9075 7.41793 7.34294 7.57122 6.72977 7.57122ZM6.72977 6.44957C7.13356 6.44957 7.50744 6.34863 7.85142 6.14673C8.19539 5.94483 8.46832 5.6719 8.67022 5.32792C8.87212 4.98395 8.97307 4.61007 8.97307 4.20627C8.97307 3.80248 8.87212 3.4286 8.67022 3.08462C8.46832 2.74065 8.19539 2.46772 7.85142 2.26582C7.50744 2.06392 7.13356 1.96297 6.72977 1.96297C6.32597 1.96297 5.95209 2.06392 5.60812 2.26582C5.26414 2.46772 4.99121 2.74065 4.78931 3.08462C4.58741 3.4286 4.48647 3.80248 4.48647 4.20627C4.48647 4.61007 4.58741 4.98395 4.78931 5.32792C4.99121 5.6719 5.26414 5.94483 5.60812 6.14673C5.95209 6.34863 6.32597 6.44957 6.72977 6.44957Z" fill="white"/>
</svg>
