<svg width="20" height="28" viewBox="0 0 20 28" fill="none" xmlns="http://www.w3.org/2000/svg">
<path d="M3.33333 13.4507L0 11.5007L10 5.66732L20 11.5007V18.584H18.3333V12.4673L16.6667 13.4507V19.0173L16.4833 19.234C15.7056 20.2007 14.7611 20.9562 13.65 21.5007C12.5056 22.0562 11.2889 22.334 10 22.334C8.71111 22.334 7.49444 22.0562 6.35 21.5007C5.23889 20.9562 4.29444 20.2007 3.51667 19.234L3.33333 19.0173V13.4507ZM5 14.4173V18.4173C5.62222 19.1173 6.36111 19.6618 7.21667 20.0507C8.09445 20.4618 9.02222 20.6673 10 20.6673C10.9778 20.6673 11.9056 20.4618 12.7833 20.0507C13.6389 19.6618 14.3778 19.1173 15 18.4173V14.4173L10 17.334L5 14.4173ZM3.3 11.5007L10 15.4007L16.7 11.5007L10 7.60065L3.3 11.5007Z" fill="#D97706"/>
</svg>
