<svg width="8" height="11" viewBox="0 0 8 11" fill="none" xmlns="http://www.w3.org/2000/svg">
<path d="M0 10.4761C0 9.75105 0.182918 9.07924 0.548755 8.46065C0.901288 7.86201 1.37688 7.38642 1.97552 7.03389C2.59411 6.66805 3.26592 6.48513 3.99094 6.48513C4.71596 6.48513 5.38777 6.66805 6.00637 7.03389C6.60501 7.38642 7.0806 7.86201 7.43313 8.46065C7.79897 9.07924 7.98189 9.75105 7.98189 10.4761H6.98415C6.98415 9.9373 6.84779 9.4351 6.57508 8.96949C6.30902 8.51719 5.94983 8.158 5.49752 7.89194C5.03191 7.61922 4.52972 7.48287 3.99094 7.48287C3.45217 7.48287 2.94997 7.61922 2.48436 7.89194C2.03206 8.158 1.67287 8.51719 1.40681 8.96949C1.13409 9.4351 0.997736 9.9373 0.997736 10.4761H0ZM3.99094 5.98626C3.44551 5.98626 2.94332 5.84991 2.48436 5.57719C2.03206 5.31113 1.67287 4.95194 1.40681 4.49964C1.13409 4.04068 0.997736 3.53849 0.997736 2.99306C0.997736 2.44763 1.13409 1.94543 1.40681 1.48647C1.67287 1.03417 2.03206 0.674983 2.48436 0.40892C2.94332 0.136206 3.44551 -0.000150681 3.99094 -0.000150681C4.53637 -0.000150681 5.03857 0.136206 5.49752 0.40892C5.94983 0.674983 6.30902 1.03417 6.57508 1.48647C6.84779 1.94543 6.98415 2.44763 6.98415 2.99306C6.98415 3.53849 6.84779 4.04068 6.57508 4.49964C6.30902 4.95194 5.94983 5.31113 5.49752 5.57719C5.03857 5.84991 4.53637 5.98626 3.99094 5.98626ZM3.99094 4.98853C4.35013 4.98853 4.68271 4.89873 4.98868 4.71914C5.29465 4.53955 5.53743 4.29676 5.71703 3.99079C5.89662 3.68482 5.98641 3.35224 5.98641 2.99306C5.98641 2.63387 5.89662 2.30129 5.71703 1.99532C5.53743 1.68935 5.29465 1.44657 4.98868 1.26697C4.68271 1.08738 4.35013 0.997584 3.99094 0.997584C3.63176 0.997584 3.29918 1.08738 2.99321 1.26697C2.68724 1.44657 2.44445 1.68935 2.26486 1.99532C2.08527 2.30129 1.99547 2.63387 1.99547 2.99306C1.99547 3.35224 2.08527 3.68482 2.26486 3.99079C2.44445 4.29676 2.68724 4.53955 2.99321 4.71914C3.29918 4.89873 3.63176 4.98853 3.99094 4.98853Z" fill="#D97706"/>
</svg>
