<svg width="35" height="23" viewBox="0 0 35 23" fill="none" xmlns="http://www.w3.org/2000/svg">
<path d="M34.8767 5.16863L17.5492 0.00721169C17.5171 -0.00239563 17.4829 -0.00239563 17.4508 0.00721169L0.123278 5.16863C-0.0393051 5.21708 -0.0417057 5.44649 0.119833 5.49829L12.6528 9.5165L12.6736 9.52277C12.6819 9.52486 12.6923 9.52893 12.7006 9.53102C14.4085 10.0879 15.6488 11.696 15.6488 13.5866C15.6488 14.6484 15.2581 15.6207 14.6142 16.3666C14.4396 16.5681 14.2464 16.753 14.0386 16.9192C13.2081 17.5836 12.123 17.9418 10.9564 17.8266C8.89024 17.6227 7.24948 15.9074 7.13127 13.8346C7.04272 12.2813 7.79257 10.8938 8.96908 10.0816L3.00707 8.17V8.23495C3.00707 9.23613 3.65364 10.1227 4.60701 10.4284L6.10503 10.909C5.61686 11.8667 5.38055 12.9734 5.48748 14.1413C5.74404 16.9455 7.99818 19.2111 10.801 19.4817C12.3648 19.6327 13.8225 19.1723 14.9591 18.3092L17.5001 22.1445L20.041 18.3092C21.1774 19.1722 22.6351 19.6326 24.1989 19.4817C27.0017 19.2112 29.256 16.9456 29.5125 14.1414C29.6194 12.9735 29.3831 11.8667 28.895 10.909L30.393 10.4284C31.3464 10.1227 31.9929 9.23613 31.9929 8.23495V8.17L26.0309 10.0816C27.2026 10.8905 27.9511 12.2698 27.8699 13.8153C27.7609 15.8882 26.1276 17.6107 24.0629 17.8245C22.8917 17.9459 21.7987 17.5874 20.9635 16.9192C20.7536 16.7551 20.5604 16.5681 20.3859 16.3666C19.7418 15.6207 19.3512 14.6484 19.3512 13.5866C19.3512 11.696 20.5915 10.0879 22.2994 9.53102C22.3077 9.52893 22.3181 9.52486 22.3264 9.52277L22.3472 9.5165L34.8802 5.49829C35.0417 5.44649 35.0393 5.21708 34.8767 5.16863Z" fill="white"/>
<path d="M34.8767 5.16863L17.5492 0.00721169C17.5171 -0.00239563 17.4829 -0.00239563 17.4508 0.00721169L0.123278 5.16863C-0.0393051 5.21708 -0.0417057 5.44649 0.119833 5.49829L12.6528 9.5165L12.6736 9.52277C12.6819 9.52486 12.6923 9.52893 12.7006 9.53102C14.4085 10.0879 15.6488 11.696 15.6488 13.5866C15.6488 14.6484 15.2581 15.6207 14.6142 16.3666C14.4396 16.5681 14.2464 16.753 14.0386 16.9192C13.2081 17.5836 12.123 17.9418 10.9564 17.8266C8.89024 17.6227 7.24948 15.9074 7.13127 13.8346C7.04272 12.2813 7.79257 10.8938 8.96908 10.0816L3.00707 8.17V8.23495C3.00707 9.23613 3.65364 10.1227 4.60701 10.4284L6.10503 10.909C5.61686 11.8667 5.38055 12.9734 5.48748 14.1413C5.74404 16.9455 7.99818 19.2111 10.801 19.4817C12.3648 19.6327 13.8225 19.1723 14.9591 18.3092L17.5001 22.1445L20.041 18.3092C21.1774 19.1722 22.6351 19.6326 24.1989 19.4817C27.0017 19.2112 29.256 16.9456 29.5125 14.1414C29.6194 12.9735 29.3831 11.8667 28.895 10.909L30.393 10.4284C31.3464 10.1227 31.9929 9.23613 31.9929 8.23495V8.17L26.0309 10.0816C27.2026 10.8905 27.9511 12.2698 27.8699 13.8153C27.7609 15.8882 26.1276 17.6107 24.0629 17.8245C22.8917 17.9459 21.7987 17.5874 20.9635 16.9192C20.7536 16.7551 20.5604 16.5681 20.3859 16.3666C19.7418 15.6207 19.3512 14.6484 19.3512 13.5866C19.3512 11.696 20.5915 10.0879 22.2994 9.53102C22.3077 9.52893 22.3181 9.52486 22.3264 9.52277L22.3472 9.5165L34.8802 5.49829C35.0417 5.44649 35.0393 5.21708 34.8767 5.16863Z" fill="white"/>
<path d="M13.7037 13.5876C13.7037 12.3071 12.6656 11.2689 11.3851 11.2689C10.1045 11.2689 9.06641 12.3071 9.06641 13.5876C9.06641 14.8682 10.1045 15.9062 11.3851 15.9062C12.6656 15.9062 13.7037 14.8682 13.7037 13.5876Z" fill="white"/>
<path d="M13.7037 13.5876C13.7037 12.3071 12.6656 11.2689 11.3851 11.2689C10.1045 11.2689 9.06641 12.3071 9.06641 13.5876C9.06641 14.8682 10.1045 15.9062 11.3851 15.9062C12.6656 15.9062 13.7037 14.8682 13.7037 13.5876Z" fill="white"/>
<path d="M21.2959 13.5876C21.2959 14.8682 22.3341 15.9062 23.6146 15.9062C24.8952 15.9062 25.9332 14.8682 25.9332 13.5876C25.9332 12.3071 24.8952 11.2689 23.6146 11.2689C22.3341 11.2689 21.2959 12.3071 21.2959 13.5876Z" fill="white"/>
<path d="M21.2959 13.5876C21.2959 14.8682 22.3341 15.9062 23.6146 15.9062C24.8952 15.9062 25.9332 14.8682 25.9332 13.5876C25.9332 12.3071 24.8952 11.2689 23.6146 11.2689C22.3341 11.2689 21.2959 12.3071 21.2959 13.5876Z" fill="white"/>
</svg>
